<svg xmlns="http://www.w3.org/2000/svg" viewBox="0 0 393.56 50"><defs><style>.cls-1{fill:#4a4a49;}.cls-2{fill:#00ace9;}.cls-3{fill:#afcb37;}.cls-4{fill:#0d5d93;}.cls-5{fill:#4b4a4a;}</style></defs><g id="Ebene_2" data-name="Ebene 2"><g id="Ebene_1-2" data-name="Ebene 1"><path class="cls-1" d="M191.12,38.12V28.81h5.56c3.47,0,5.49,1.91,5.49,4.65s-2.07,4.66-5.49,4.66Zm0-16.6V12.94h4.71c3.48,0,5.22,1.68,5.22,4.26s-2,4.32-5.1,4.32ZM182.49,5.6V45.35h16C206,45.35,211,40.59,211,34.08a9.31,9.31,0,0,0-7.07-9.31,8.89,8.89,0,0,0,5.83-8.52c0-6.11-4.54-10.66-12.39-10.66H182.49ZM158.21,38.12V28.81h5.55c3.48,0,5.5,1.91,5.5,4.65s-2.08,4.66-5.5,4.66Zm0-16.6V12.94h4.71c3.48,0,5.21,1.68,5.21,4.26s-2,4.32-5.1,4.32ZM149.58,5.6V45.35h16c7.52,0,12.45-4.76,12.45-11.27A9.31,9.31,0,0,0,171,24.77a8.89,8.89,0,0,0,5.83-8.52c0-6.11-4.54-10.66-12.39-10.66H149.58ZM129.45,45.35V30.49h14.69V22.42H129.39V14h16.77V5.6H120.53V45.35ZM98.94,15.46l4.77,13.74H94.06l4.88-13.74Zm10.43,29.89H119L104.21,5.6H94L79,45.35h9.31l2.86-8.07h15.36l2.86,8.07Z"/><path class="cls-2" d="M14.27,18.29.79,31.77a2.45,2.45,0,0,0,0,3.55L14.68,49.21a2.45,2.45,0,0,0,3.55,0L32.29,35.15V18.29Z"/><path class="cls-3" d="M66.31,31.77,52.82,18.29h-18V35.15L48.87,49.21a2.46,2.46,0,0,0,3.55,0L66.31,35.32a2.46,2.46,0,0,0,0-3.55Z"/><path class="cls-4" d="M50.65,16.11,35.33.79a2.36,2.36,0,0,0-.21-.18A2.34,2.34,0,0,0,32,.61a1.52,1.52,0,0,0-.2.18L16.45,16.11Z"/><path class="cls-5" d="M245.68,21.72h-1.53a.65.65,0,0,1-.43-.13.86.86,0,0,1-.25-.34l-1.36-3.53h-6.57l-1.37,3.53a.73.73,0,0,1-.24.32.64.64,0,0,1-.43.15H232l5.85-14.63h2Zm-9.59-5.43h5.46l-2.29-5.95A10.82,10.82,0,0,1,238.82,9l-.22.77c-.07.23-.14.44-.21.62Z"/><path class="cls-5" d="M249.13,6.68v8.85h.47a1,1,0,0,0,.33,0,1.09,1.09,0,0,0,.3-.23l3.27-3.5a1.83,1.83,0,0,1,.3-.27.73.73,0,0,1,.41-.1h1.66l-3.81,4-.28.31a1.78,1.78,0,0,1-.31.23,2.22,2.22,0,0,1,.33.28,3.44,3.44,0,0,1,.28.36l4,5.11h-1.63a.8.8,0,0,1-.39-.09,1.22,1.22,0,0,1-.3-.27l-3.4-4.24a.86.86,0,0,0-.3-.28,1.38,1.38,0,0,0-.46-.06h-.51v4.94H247.3v-15Z"/><path class="cls-5" d="M265.53,21.72h-.8a1,1,0,0,1-.43-.08.48.48,0,0,1-.22-.35l-.2-1c-.27.24-.54.47-.8.66a5.63,5.63,0,0,1-.81.49,4.51,4.51,0,0,1-.92.3,5.06,5.06,0,0,1-1.07.1,3.72,3.72,0,0,1-1.13-.17,2.64,2.64,0,0,1-.92-.5,2.48,2.48,0,0,1-.61-.86,3,3,0,0,1-.23-1.22,2.35,2.35,0,0,1,.33-1.19,3.07,3.07,0,0,1,1.09-1,7.3,7.3,0,0,1,2-.72,13.25,13.25,0,0,1,3-.28v-.81a2.8,2.8,0,0,0-.52-1.84,1.87,1.87,0,0,0-1.52-.62,3.3,3.3,0,0,0-1.12.17,4.47,4.47,0,0,0-.79.38c-.22.14-.41.26-.57.38a.85.85,0,0,1-.47.17.55.55,0,0,1-.32-.1.71.71,0,0,1-.22-.24l-.33-.58a5.53,5.53,0,0,1,4-1.65,3.88,3.88,0,0,1,1.54.29,3.1,3.1,0,0,1,1.14.8,3.51,3.51,0,0,1,.69,1.23,5,5,0,0,1,.24,1.59v6.62Zm-4.71-1.11a3.54,3.54,0,0,0,1.63-.38,4.46,4.46,0,0,0,.67-.43,6.65,6.65,0,0,0,.63-.58V17.08a12.9,12.9,0,0,0-2.14.16,6.31,6.31,0,0,0-1.43.42,2.07,2.07,0,0,0-.8.6,1.39,1.39,0,0,0-.25.78,1.7,1.7,0,0,0,.14.71,1.26,1.26,0,0,0,.35.49,1.42,1.42,0,0,0,.53.28A2.85,2.85,0,0,0,260.82,20.61Z"/><path class="cls-5" d="M275.57,21.72a.46.46,0,0,1-.49-.38l-.17-1.25a5.6,5.6,0,0,1-1.51,1.29,3.93,3.93,0,0,1-2,.48,3.69,3.69,0,0,1-1.61-.34,3.23,3.23,0,0,1-1.23-1,4.69,4.69,0,0,1-.79-1.65,8.67,8.67,0,0,1-.28-2.28,7.19,7.19,0,0,1,.31-2.12,5.13,5.13,0,0,1,.88-1.71A4.1,4.1,0,0,1,272,11.19a3.8,3.8,0,0,1,1.62.32,3.9,3.9,0,0,1,1.2.91V6.68h1.82v15ZM272,20.39A2.84,2.84,0,0,0,273.6,20a4.28,4.28,0,0,0,1.23-1.15v-5a2.74,2.74,0,0,0-1.1-.94,3,3,0,0,0-1.32-.28,2.61,2.61,0,0,0-2.22,1,4.81,4.81,0,0,0-.78,2.94,7.78,7.78,0,0,0,.17,1.73,3.53,3.53,0,0,0,.51,1.19,2.09,2.09,0,0,0,.83.68A2.83,2.83,0,0,0,272,20.39Z"/><path class="cls-5" d="M283.79,11.21a4.62,4.62,0,0,1,1.72.32,3.78,3.78,0,0,1,1.36.89,4.22,4.22,0,0,1,.89,1.45,5.73,5.73,0,0,1,.32,2,1.2,1.2,0,0,1-.09.57.4.4,0,0,1-.35.14h-6.88a5.43,5.43,0,0,0,.27,1.71,3.45,3.45,0,0,0,.67,1.21,2.79,2.79,0,0,0,1,.72,3.54,3.54,0,0,0,1.33.24,3.78,3.78,0,0,0,1.18-.16,5.36,5.36,0,0,0,.85-.34,5.13,5.13,0,0,0,.6-.34.77.77,0,0,1,.41-.16.41.41,0,0,1,.35.17l.51.67a3.47,3.47,0,0,1-.81.71,4.89,4.89,0,0,1-1,.49,6,6,0,0,1-1.11.29,6.24,6.24,0,0,1-1.13.1,5.29,5.29,0,0,1-2-.36,4.41,4.41,0,0,1-1.56-1.06,5,5,0,0,1-1-1.73,7.2,7.2,0,0,1-.36-2.37,6,6,0,0,1,.33-2,4.8,4.8,0,0,1,.95-1.63,4.39,4.39,0,0,1,1.52-1.08A5,5,0,0,1,283.79,11.21Zm0,1.34a2.83,2.83,0,0,0-2.07.76,3.66,3.66,0,0,0-.94,2.11h5.63a3.57,3.57,0,0,0-.18-1.16,2.47,2.47,0,0,0-.51-.91,2.33,2.33,0,0,0-.82-.59A2.75,2.75,0,0,0,283.83,12.55Z"/><path class="cls-5" d="M290.4,21.72V11.38h1.08a.46.46,0,0,1,.49.38l.13,1.06a5.12,5.12,0,0,1,1.28-1.15,3,3,0,0,1,1.65-.45,2.44,2.44,0,0,1,1.7.58,3.3,3.3,0,0,1,.94,1.57,3.17,3.17,0,0,1,.56-1A3.32,3.32,0,0,1,300,11.34a4.22,4.22,0,0,1,1-.13,3.73,3.73,0,0,1,1.46.27,2.83,2.83,0,0,1,1.08.76,3.33,3.33,0,0,1,.68,1.23,5.28,5.28,0,0,1,.24,1.66v6.59H302.6V15.13a2.8,2.8,0,0,0-.53-1.84,1.91,1.91,0,0,0-1.54-.63,2.48,2.48,0,0,0-.86.16,2.1,2.1,0,0,0-.71.47,2.2,2.2,0,0,0-.48.77,3,3,0,0,0-.18,1.07v6.59h-1.82V15.13a2.84,2.84,0,0,0-.5-1.85,1.76,1.76,0,0,0-1.46-.61,2.33,2.33,0,0,0-1.25.36,4.19,4.19,0,0,0-1,1v7.71Z"/><path class="cls-5" d="M309.59,8.13a1.22,1.22,0,0,1-.11.5,1.42,1.42,0,0,1-.28.41,1.54,1.54,0,0,1-.42.28,1.28,1.28,0,0,1-1,0,1.65,1.65,0,0,1-.41-.28,1.42,1.42,0,0,1-.28-.41,1.3,1.3,0,0,1,0-1,1.34,1.34,0,0,1,.28-.42,1.25,1.25,0,0,1,.41-.28,1.16,1.16,0,0,1,.49-.1,1.18,1.18,0,0,1,.5.1,1.19,1.19,0,0,1,.42.28,1.34,1.34,0,0,1,.28.42A1.22,1.22,0,0,1,309.59,8.13Zm-.41,3.25V21.72h-1.82V11.38Z"/><path class="cls-5" d="M316.48,11.21a4.62,4.62,0,0,1,1.72.32,3.74,3.74,0,0,1,1.35.89,4.24,4.24,0,0,1,.9,1.45,5.73,5.73,0,0,1,.32,2,1.06,1.06,0,0,1-.1.57.38.38,0,0,1-.34.14h-6.88a5.75,5.75,0,0,0,.26,1.71,3.63,3.63,0,0,0,.68,1.21,2.64,2.64,0,0,0,1,.72,3.45,3.45,0,0,0,1.32.24,3.74,3.74,0,0,0,1.18-.16,5.5,5.5,0,0,0,.86-.34,5.85,5.85,0,0,0,.59-.34.77.77,0,0,1,.42-.16.43.43,0,0,1,.35.17l.51.67a3.69,3.69,0,0,1-.81.71,5,5,0,0,1-1,.49,5.74,5.74,0,0,1-1.1.29,6.27,6.27,0,0,1-1.14.1,5.27,5.27,0,0,1-2-.36,4.24,4.24,0,0,1-1.56-1.06,4.8,4.8,0,0,1-1-1.73,6.94,6.94,0,0,1-.37-2.37,6,6,0,0,1,.33-2,4.82,4.82,0,0,1,1-1.63,4.29,4.29,0,0,1,1.52-1.08A5,5,0,0,1,316.48,11.21Zm0,1.34a2.8,2.8,0,0,0-2.07.76,3.54,3.54,0,0,0-.94,2.11h5.62a3.58,3.58,0,0,0-.17-1.16,2.47,2.47,0,0,0-.51-.91,2.33,2.33,0,0,0-.82-.59A2.75,2.75,0,0,0,316.52,12.55Z"/><path class="cls-5" d="M327.43,21.72V12.93l-1.14-.13a1.09,1.09,0,0,1-.36-.16.37.37,0,0,1-.13-.31v-.75h1.63v-1A4.46,4.46,0,0,1,327.68,9a3.3,3.3,0,0,1,.72-1.17,3.09,3.09,0,0,1,1.11-.72A4.28,4.28,0,0,1,331,6.88a4.1,4.1,0,0,1,1.29.2l0,.91q0,.21-.18.24a1.77,1.77,0,0,1-.45,0h-.32a2.81,2.81,0,0,0-.85.13,1.49,1.49,0,0,0-.66.4,1.71,1.71,0,0,0-.43.72,3.9,3.9,0,0,0-.14,1.11v.95h3V12.9h-2.93v8.82Z"/><path class="cls-5" d="M335.48,11.38V18a2.75,2.75,0,0,0,.54,1.82,2,2,0,0,0,1.63.64,3.14,3.14,0,0,0,1.5-.37,4.93,4.93,0,0,0,1.3-1.06V11.38h1.81V21.72h-1.08a.47.47,0,0,1-.49-.38l-.14-1.11a5.75,5.75,0,0,1-1.51,1.2,4,4,0,0,1-1.92.45,3.72,3.72,0,0,1-1.5-.28,3,3,0,0,1-1.08-.79,3.17,3.17,0,0,1-.66-1.23,5.45,5.45,0,0,1-.22-1.61V11.38Zm1.87-2.82a1.08,1.08,0,0,1-.09.44,1.11,1.11,0,0,1-.25.36,1.36,1.36,0,0,1-.38.24,1.08,1.08,0,0,1-.44.09,1.07,1.07,0,0,1-.43-.09,1.13,1.13,0,0,1-.36-.24,1.11,1.11,0,0,1-.25-.36,1.08,1.08,0,0,1-.09-.44,1.17,1.17,0,0,1,.09-.45,1.05,1.05,0,0,1,.25-.37,1.11,1.11,0,0,1,.36-.25,1.07,1.07,0,0,1,.43-.09,1.08,1.08,0,0,1,.44.09,1.19,1.19,0,0,1,.38.25,1.21,1.21,0,0,1,.25.37A1.17,1.17,0,0,1,337.35,8.56Zm3.67,0a1.08,1.08,0,0,1-.09.44,1.54,1.54,0,0,1-.25.36,1.31,1.31,0,0,1-.37.24,1.12,1.12,0,0,1-.44.09,1.15,1.15,0,0,1-.81-.33,1.54,1.54,0,0,1-.25-.36,1.08,1.08,0,0,1-.09-.44,1.17,1.17,0,0,1,.09-.45,1.41,1.41,0,0,1,.25-.37,1,1,0,0,1,.36-.25,1.13,1.13,0,0,1,.45-.09,1.12,1.12,0,0,1,.44.09,1.15,1.15,0,0,1,.37.25,1.41,1.41,0,0,1,.25.37A1.17,1.17,0,0,1,341,8.56Z"/><path class="cls-5" d="M345.26,21.72V11.38h1a.63.63,0,0,1,.41.11.72.72,0,0,1,.15.39l.12,1.61a4.75,4.75,0,0,1,1.31-1.69,2.93,2.93,0,0,1,1.84-.61,2.73,2.73,0,0,1,1.41.37l-.23,1.36a.31.31,0,0,1-.32.26,1.92,1.92,0,0,1-.44-.1,2.53,2.53,0,0,0-.82-.1,2.31,2.31,0,0,0-1.59.55,4.12,4.12,0,0,0-1.07,1.61v6.58Z"/><path class="cls-5" d="M233.42,44.18v-15h1.82v6.19a5.28,5.28,0,0,1,1.48-1.2,3.82,3.82,0,0,1,1.9-.46,3.93,3.93,0,0,1,1.63.34,3.31,3.31,0,0,1,1.23,1,4.87,4.87,0,0,1,.79,1.65,8.62,8.62,0,0,1,.27,2.27,7.31,7.31,0,0,1-.3,2.13,5,5,0,0,1-.89,1.7,4.19,4.19,0,0,1-1.4,1.14,4.29,4.29,0,0,1-1.88.41,3.45,3.45,0,0,1-1.7-.39,3.9,3.9,0,0,1-1.22-1.08l-.09.94a.44.44,0,0,1-.47.39ZM238,35.12a2.91,2.91,0,0,0-1.55.41,4.42,4.42,0,0,0-1.23,1.15v5a2.81,2.81,0,0,0,1.08,1,3.09,3.09,0,0,0,1.34.28,2.62,2.62,0,0,0,2.22-1,4.81,4.81,0,0,0,.78-2.94,7.33,7.33,0,0,0-.18-1.74A3.35,3.35,0,0,0,240,36a2,2,0,0,0-.82-.67A2.67,2.67,0,0,0,238,35.12Z"/><path class="cls-5" d="M248.86,33.67a4.82,4.82,0,0,1,1.72.31,4,4,0,0,1,1.36.9,4.22,4.22,0,0,1,.89,1.45,5.73,5.73,0,0,1,.32,2,1.23,1.23,0,0,1-.09.57.4.4,0,0,1-.35.14h-6.88a5.48,5.48,0,0,0,.27,1.71,3.45,3.45,0,0,0,.67,1.21,2.79,2.79,0,0,0,1,.72,3.5,3.5,0,0,0,1.33.24,3.78,3.78,0,0,0,1.18-.16,5.78,5.78,0,0,0,.85-.34c.24-.12.44-.24.6-.34a.71.71,0,0,1,.41-.16.41.41,0,0,1,.35.17l.51.67a3.69,3.69,0,0,1-.81.71,5.15,5.15,0,0,1-1,.49,6,6,0,0,1-1.11.29,6.24,6.24,0,0,1-1.13.1,5.29,5.29,0,0,1-2-.36,4.41,4.41,0,0,1-1.56-1.06,5,5,0,0,1-1-1.73A7.2,7.2,0,0,1,244,38.8a5.79,5.79,0,0,1,.33-2,4.8,4.8,0,0,1,.95-1.63,4.39,4.39,0,0,1,1.52-1.08A4.86,4.86,0,0,1,248.86,33.67Zm0,1.34a2.78,2.78,0,0,0-2.07.76,3.66,3.66,0,0,0-.94,2.11h5.63a3.57,3.57,0,0,0-.18-1.16,2.47,2.47,0,0,0-.51-.91,2.33,2.33,0,0,0-.82-.59A2.75,2.75,0,0,0,248.9,35Z"/><path class="cls-5" d="M255.47,44.18V33.84h1a.58.58,0,0,1,.41.11.72.72,0,0,1,.15.39l.12,1.61a4.77,4.77,0,0,1,1.31-1.69,2.93,2.93,0,0,1,1.84-.61,2.66,2.66,0,0,1,.77.1,2.28,2.28,0,0,1,.64.27l-.23,1.36a.3.3,0,0,1-.32.25,1.63,1.63,0,0,1-.43-.09,2.64,2.64,0,0,0-.83-.1,2.33,2.33,0,0,0-1.59.55,4.14,4.14,0,0,0-1.06,1.6v6.59Z"/><path class="cls-5" d="M265.27,33.84v6.59a2.76,2.76,0,0,0,.54,1.82,2,2,0,0,0,1.63.64,3.15,3.15,0,0,0,1.5-.38,4.7,4.7,0,0,0,1.3-1V33.84h1.81V44.18H271a.47.47,0,0,1-.49-.38l-.14-1.11a6.14,6.14,0,0,1-1.51,1.2,4,4,0,0,1-1.92.45,3.72,3.72,0,0,1-1.5-.28,3,3,0,0,1-1.08-.79,3.14,3.14,0,0,1-.66-1.24,5.34,5.34,0,0,1-.22-1.6V33.84Z"/><path class="cls-5" d="M275.45,44.18V35.39l-1.14-.14a.81.81,0,0,1-.35-.15.35.35,0,0,1-.14-.31V34h1.63v-.55a4.93,4.93,0,0,1,.27-1.63,3.69,3.69,0,0,1,.79-1.34,3.84,3.84,0,0,1,1.33-.91,4.64,4.64,0,0,1,1.86-.34c.56,0,1.11,0,1.63.07s1,.07,1.51.07h1V44.18h-1.81V30.64H280a2.7,2.7,0,0,0-2.05.75,3,3,0,0,0-.71,2.11V34h2.69v1.32h-2.63v8.82Z"/><path class="cls-5" d="M288.84,30.59a1.13,1.13,0,0,1-.1.49,1.33,1.33,0,0,1-.29.41,1.3,1.3,0,0,1-.41.28,1.19,1.19,0,0,1-1,0,1.42,1.42,0,0,1-.41-.28,1.49,1.49,0,0,1-.28-.41,1.3,1.3,0,0,1-.1-.49,1.45,1.45,0,0,1,.1-.51,1.35,1.35,0,0,1,.28-.41,1.46,1.46,0,0,1,.41-.29,1.3,1.3,0,0,1,1,0,1.33,1.33,0,0,1,.41.29,1.22,1.22,0,0,1,.29.41A1.25,1.25,0,0,1,288.84,30.59Zm-.4,3.25V44.18h-1.82V33.84Z"/><path class="cls-5" d="M298.7,35.67a.74.74,0,0,1-.17.18.37.37,0,0,1-.23.06.53.53,0,0,1-.33-.13,5,5,0,0,0-.46-.28,4.37,4.37,0,0,0-.67-.28,3.28,3.28,0,0,0-1-.13,3.14,3.14,0,0,0-1.34.27,2.76,2.76,0,0,0-1,.78,3.66,3.66,0,0,0-.59,1.24,6.19,6.19,0,0,0-.2,1.62,5.63,5.63,0,0,0,.22,1.67,3.53,3.53,0,0,0,.6,1.23,2.48,2.48,0,0,0,1,.75,2.8,2.8,0,0,0,1.25.26,3.37,3.37,0,0,0,1.09-.15,3.6,3.6,0,0,0,.71-.36,4.41,4.41,0,0,0,.47-.35.57.57,0,0,1,.37-.16.39.39,0,0,1,.35.18l.51.66a4,4,0,0,1-1.69,1.21,6,6,0,0,1-2.13.38,4.62,4.62,0,0,1-1.8-.35,4,4,0,0,1-1.44-1,5,5,0,0,1-1-1.67,6.83,6.83,0,0,1-.35-2.26,6.61,6.61,0,0,1,.32-2.13,4.8,4.8,0,0,1,.94-1.69,4.37,4.37,0,0,1,1.52-1.11,5.25,5.25,0,0,1,2.08-.39,5,5,0,0,1,1.92.35,4.55,4.55,0,0,1,1.48,1Z"/><path class="cls-5" d="M301.18,44.18v-15H303v6.09a5.26,5.26,0,0,1,1.47-1.13,4.18,4.18,0,0,1,3.35-.15,2.94,2.94,0,0,1,1.09.8,3.49,3.49,0,0,1,.65,1.24,5.38,5.38,0,0,1,.23,1.6v6.59H308V37.59a2.82,2.82,0,0,0-.53-1.82,2,2,0,0,0-1.64-.65,3.06,3.06,0,0,0-1.51.39A5.22,5.22,0,0,0,303,36.56v7.62Z"/><path class="cls-5" d="M316.62,33.67a4.73,4.73,0,0,1,1.71.31,3.85,3.85,0,0,1,1.36.9,4.24,4.24,0,0,1,.9,1.45,5.73,5.73,0,0,1,.32,2,1.09,1.09,0,0,1-.1.57.38.38,0,0,1-.34.14h-6.88a5.8,5.8,0,0,0,.26,1.71,3.63,3.63,0,0,0,.68,1.21,2.64,2.64,0,0,0,1,.72,3.45,3.45,0,0,0,1.32.24,3.74,3.74,0,0,0,1.18-.16,5.5,5.5,0,0,0,.86-.34c.23-.12.43-.24.59-.34a.77.77,0,0,1,.42-.16.4.4,0,0,1,.34.17l.52.67a3.69,3.69,0,0,1-.81.71,5,5,0,0,1-1,.49,5.74,5.74,0,0,1-1.1.29,6.27,6.27,0,0,1-1.14.1,5.27,5.27,0,0,1-2-.36,4.32,4.32,0,0,1-1.56-1.06,4.89,4.89,0,0,1-1-1.73,7.19,7.19,0,0,1-.37-2.37,5.79,5.79,0,0,1,.34-2,4.64,4.64,0,0,1,.95-1.63,4.29,4.29,0,0,1,1.52-1.08A4.86,4.86,0,0,1,316.62,33.67Zm0,1.34a2.76,2.76,0,0,0-2.07.76,3.6,3.6,0,0,0-.94,2.11h5.62a3.58,3.58,0,0,0-.17-1.16,2.79,2.79,0,0,0-.51-.91,2.42,2.42,0,0,0-.82-.59A2.75,2.75,0,0,0,316.66,35Z"/><path class="cls-5" d="M327.45,44.18V29.55h4.67a9.28,9.28,0,0,1,2.32.26,4.49,4.49,0,0,1,1.6.76,3,3,0,0,1,.93,1.2,4,4,0,0,1,.3,1.6,3.13,3.13,0,0,1-.68,2,3.69,3.69,0,0,1-.85.76,5,5,0,0,1-1.21.56A4.54,4.54,0,0,1,337,37.81a3,3,0,0,1,.81,2.2,4.1,4.1,0,0,1-.34,1.7,3.56,3.56,0,0,1-1,1.31,4.68,4.68,0,0,1-1.61.86,7.32,7.32,0,0,1-2.18.3Zm2-8.08H332a5.13,5.13,0,0,0,1.45-.18,3.25,3.25,0,0,0,1-.51,2,2,0,0,0,.6-.79,2.61,2.61,0,0,0,.19-1,2.26,2.26,0,0,0-.77-1.89,3.94,3.94,0,0,0-2.41-.6h-2.69Zm0,1.41V42.6h3.17a4.77,4.77,0,0,0,1.45-.19,2.72,2.72,0,0,0,1-.54,2.19,2.19,0,0,0,.58-.84,3,3,0,0,0,.18-1.07,2.21,2.21,0,0,0-.8-1.79,3.74,3.74,0,0,0-2.42-.66Z"/><path class="cls-5" d="M342.8,30.59a1.13,1.13,0,0,1-.1.49,1.33,1.33,0,0,1-.29.41,1.42,1.42,0,0,1-.41.28,1.25,1.25,0,0,1-.5.11,1.18,1.18,0,0,1-.5-.11,1.42,1.42,0,0,1-.41-.28,1.49,1.49,0,0,1-.28-.41,1.3,1.3,0,0,1-.1-.49,1.25,1.25,0,0,1,.1-.51,1.35,1.35,0,0,1,.28-.41,1.46,1.46,0,0,1,.41-.29,1.35,1.35,0,0,1,.5-.1,1.44,1.44,0,0,1,.5.1,1.46,1.46,0,0,1,.41.29,1.22,1.22,0,0,1,.29.41A1.25,1.25,0,0,1,342.8,30.59Zm-.41,3.25V44.18h-1.81V33.84Z"/><path class="cls-5" d="M347.62,29.14v15H345.8v-15Z"/><path class="cls-5" d="M358.1,44.18a.47.47,0,0,1-.49-.38l-.16-1.26a5.31,5.31,0,0,1-1.52,1.29,3.79,3.79,0,0,1-1.95.49,3.83,3.83,0,0,1-1.61-.34,3.36,3.36,0,0,1-1.24-1,4.68,4.68,0,0,1-.78-1.65,8.27,8.27,0,0,1-.28-2.28,7,7,0,0,1,.31-2.13,5.13,5.13,0,0,1,.88-1.71,4.19,4.19,0,0,1,1.4-1.14,4.25,4.25,0,0,1,1.88-.41,3.85,3.85,0,0,1,1.63.32,4.15,4.15,0,0,1,1.2.9V29.14h1.82v15Zm-3.52-1.33a3,3,0,0,0,1.56-.41,4.55,4.55,0,0,0,1.23-1.15v-5a2.85,2.85,0,0,0-1.1-.95,3.18,3.18,0,0,0-1.32-.27,2.64,2.64,0,0,0-2.23,1A4.88,4.88,0,0,0,352,39a7.78,7.78,0,0,0,.17,1.73,3.62,3.62,0,0,0,.51,1.19,2.09,2.09,0,0,0,.83.68A2.83,2.83,0,0,0,354.58,42.85Z"/><path class="cls-5" d="M363.81,33.84v6.59a2.76,2.76,0,0,0,.54,1.82,2,2,0,0,0,1.64.64,3.15,3.15,0,0,0,1.5-.38,4.52,4.52,0,0,0,1.29-1V33.84h1.82V44.18h-1.08a.46.46,0,0,1-.49-.38l-.15-1.11a6,6,0,0,1-1.51,1.2,4,4,0,0,1-1.92.45,3.67,3.67,0,0,1-1.49-.28,2.92,2.92,0,0,1-1.09-.79,3.42,3.42,0,0,1-.66-1.24,5.68,5.68,0,0,1-.22-1.6V33.84Z"/><path class="cls-5" d="M373.59,44.18V33.84h1.08a.46.46,0,0,1,.49.37l.15,1.13a5.91,5.91,0,0,1,1.5-1.21,4,4,0,0,1,1.93-.46,3.84,3.84,0,0,1,1.49.28,3,3,0,0,1,1.08.8A3.51,3.51,0,0,1,382,36a5.38,5.38,0,0,1,.23,1.6v6.59h-1.82V37.59a2.82,2.82,0,0,0-.53-1.82,2,2,0,0,0-1.64-.65,3.06,3.06,0,0,0-1.51.39,4.88,4.88,0,0,0-1.29,1.05v7.62Z"/><path class="cls-5" d="M388.42,33.66a5.06,5.06,0,0,1,1.26.15,4.06,4.06,0,0,1,1.07.43h2.81v.68c0,.22-.15.37-.43.43l-1.18.16A3.17,3.17,0,0,1,392.3,37a3.23,3.23,0,0,1-.29,1.37,3,3,0,0,1-.81,1.06,3.52,3.52,0,0,1-1.22.67,4.86,4.86,0,0,1-1.56.24,5.09,5.09,0,0,1-1.37-.18,1.83,1.83,0,0,0-.49.46.78.78,0,0,0-.17.47.64.64,0,0,0,.3.58,2,2,0,0,0,.78.28,7.45,7.45,0,0,0,1.12.08h1.27a6.75,6.75,0,0,1,1.27.12,3.54,3.54,0,0,1,1.11.37,2.08,2.08,0,0,1,.79.71,2.19,2.19,0,0,1,.29,1.18,2.76,2.76,0,0,1-.33,1.3,3.47,3.47,0,0,1-.95,1.12,5.08,5.08,0,0,1-1.52.79,6.74,6.74,0,0,1-2,.29,7.83,7.83,0,0,1-2-.22,4.38,4.38,0,0,1-1.41-.61,2.6,2.6,0,0,1-.85-.87,2.16,2.16,0,0,1-.28-1,1.85,1.85,0,0,1,.49-1.3,3.29,3.29,0,0,1,1.33-.85,1.85,1.85,0,0,1-.7-.55,1.49,1.49,0,0,1-.26-.91,1.6,1.6,0,0,1,.08-.47,2.15,2.15,0,0,1,.25-.47,2.2,2.2,0,0,1,.42-.45,2.69,2.69,0,0,1,.57-.38,3.13,3.13,0,0,1-1.2-1.14A3.08,3.08,0,0,1,384.5,37a3.25,3.25,0,0,1,.29-1.38,3.12,3.12,0,0,1,.82-1,3.69,3.69,0,0,1,1.24-.67A5.18,5.18,0,0,1,388.42,33.66Zm3.23,11a.88.88,0,0,0-.22-.63,1.35,1.35,0,0,0-.58-.37,4.43,4.43,0,0,0-.85-.2,8.07,8.07,0,0,0-1-.06h-1.08a3.6,3.6,0,0,1-1.05-.14,3,3,0,0,0-.94.68,1.32,1.32,0,0,0-.37,1,1.25,1.25,0,0,0,.18.65,1.54,1.54,0,0,0,.55.52,3.47,3.47,0,0,0,.92.35,6.29,6.29,0,0,0,1.31.12,5.9,5.9,0,0,0,1.32-.13,3,3,0,0,0,1-.39,1.76,1.76,0,0,0,.62-.59A1.35,1.35,0,0,0,391.65,44.7Zm-3.23-5.58a3,3,0,0,0,1-.15,1.88,1.88,0,0,0,.71-.43,1.76,1.76,0,0,0,.43-.66,2.47,2.47,0,0,0,.14-.84,2,2,0,0,0-.58-1.51,2.77,2.77,0,0,0-3.34,0,2,2,0,0,0-.58,1.51,2.24,2.24,0,0,0,.15.84,1.65,1.65,0,0,0,.43.66,2.06,2.06,0,0,0,.7.43A2.85,2.85,0,0,0,388.42,39.12Z"/></g></g></svg>